<svg viewBox="0 0 3104.51 911.88" xmlns="http://www.w3.org/2000/svg"><g fill="#0174c3"><path d="m0 451.76c0-80.29 21.59-143.78 63.5-191.71 43.13-47.93 97.03-71.91 164.15-71.91 21.59 0 41.95 2.4 61.1 8.37 19.19 4.8 33.54 11.99 44.35 20.37 10.77 8.37 20.37 15.57 28.74 23.98s14.39 14.39 17.97 20.37l3.58 8.37h2.4c-1.18-9.59-2.4-21.59-2.4-33.54v-236.06h97.08v704.56h-92.28v-47.93l1.18-33.54h-2.4c-1.18 2.4-3.58 5.98-5.98 9.59-2.4 3.58-8.37 11.99-16.79 22.76-8.37 10.77-19.19 20.37-31.14 28.74-11.99 8.37-27.56 15.57-47.93 22.76s-41.95 9.59-64.72 9.59c-68.29 0-122.24-23.98-161.75-73.09-38.29-49.12-58.66-112.62-58.66-191.68zm99.44 0c0 55.12 13.17 98.25 39.55 131.79 26.34 32.36 61.1 49.11 103.05 49.11s75.49-15.57 104.23-45.53c27.56-29.96 41.95-75.49 41.95-136.59 0-49.11-11.99-91.06-37.16-125.81-25.16-35.93-59.92-53.9-105.45-53.9-40.73 0-75.49 15.57-104.23 47.93-28.77 33.53-41.94 76.66-41.94 133z"/><path d="m563.14 98.3v-98.25h98.25v98.25zm1.22 606.27v-505.66h97.08v505.66z"/><path d="m808.79 795.62c41.95 22.76 88.66 33.54 138.99 33.54s86.26-11.99 116.22-34.76c28.74-22.76 44.35-58.7 44.35-107.85v-37.16l1.18-32.36h-2.4c-31.14 52.72-81.46 79.07-149.76 79.07s-123.42-23.98-164.15-73.09-61.1-110.25-61.1-185.73 19.19-135.41 58.7-182.12c39.55-46.75 93.46-70.69 161.75-70.69 22.76 0 43.13 2.4 62.32 7.2s34.76 10.77 45.53 19.19c10.77 7.2 20.37 15.57 28.74 22.76 8.37 7.2 13.17 13.17 15.57 19.19l4.8 7.2h2.4c-1.18-4.8-1.18-9.59-1.18-15.57v-46.71h92.28v484.07c0 39.55-7.2 75.49-21.59 105.45-14.39 31.14-33.54 55.12-58.7 71.91-25.16 17.97-51.5 31.14-80.29 39.55-28.74 8.37-61.1 13.17-93.46 13.17-61.1 0-118.62-14.39-172.52-41.95zm166.55-180.93c39.55 0 71.91-13.17 95.85-40.73 25.16-27.56 37.16-71.91 37.16-133.01 0-112.64-47.93-170.17-142.6-170.17-43.13 0-76.67 14.39-101.83 44.35-23.98 29.96-35.93 70.69-35.93 122.24s13.17 95.85 39.55 128.21c26.3 32.36 62.27 49.11 107.8 49.11z"/><path d="m1283.27 98.3v-98.25h98.25v98.25zm1.18 606.27v-505.66h97.08v505.66z"/><path d="m1452.22 451.76c0-75.49 25.16-137.81 76.67-188.13 50.33-50.33 115.04-75.49 194.11-75.49 37.16 0 71.91 5.98 103.05 17.97s53.9 25.16 67.12 37.16l19.19 17.97-45.53 68.29c-3.58-3.58-9.59-9.59-17.97-15.57-7.2-7.2-23.98-15.57-47.93-26.34-23.98-10.77-49.11-15.57-74.27-15.57-50.33 0-92.28 16.79-125.81 50.33-33.54 33.54-50.33 76.67-50.33 128.21s16.79 94.68 50.33 129.39c33.54 34.76 76.67 51.5 128.21 51.5 27.56 0 55.12-5.98 80.29-16.79 26.34-10.77 44.35-22.76 56.3-33.54l17.97-16.79 38.33 70.69-8.37 8.37c-3.58 3.58-11.99 9.59-23.98 19.19-13.17 9.59-26.34 17.97-40.73 23.98-14.39 7.2-33.54 13.17-56.3 19.19-22.76 5.98-46.75 8.37-71.91 8.37-79.07 0-143.78-25.16-194.11-74.27-49.17-47.96-74.33-111.45-74.33-188.12z"/><path d="m1936.29 451.76c0-79.07 23.98-142.6 71.91-191.71s107.85-73.09 180.94-73.09c68.29 0 122.24 22.76 160.57 67.12s57.52 100.65 57.52 170.17l-2.4 41.95h-367.85c2.4 52.72 20.37 94.68 53.9 123.42 32.36 28.74 73.09 43.13 119.84 43.13 26.34 0 51.5-4.8 76.67-14.39s43.13-19.19 55.12-28.74l17.97-14.39 39.55 70.69c-4.8 4.8-13.17 11.99-23.98 20.37-10.77 8.37-32.36 19.19-67.12 32.36-33.54 13.17-68.29 20.37-104.23 20.37-79.07 0-142.6-25.16-192.93-75.49-50.32-52.79-75.48-116.28-75.48-191.77zm103.05-58.74h269.6c-1.18-41.95-13.17-74.27-35.94-95.85s-51.5-32.36-85.08-32.36c-38.33 0-70.69 10.77-97.07 33.54-28.75 22.8-45.54 53.94-51.51 94.67z"/><path d="m2476.7 704.57v-505.66h93.46v87.48l-2.4 38.33h2.4c11.99-38.33 32.36-70.69 59.92-94.68 28.74-25.16 61.1-37.16 99.43-37.16l25.16 2.4v95.85c-8.37-2.4-17.97-2.4-27.56-2.4-31.14 0-59.92 10.77-86.26 32.36s-44.35 50.33-56.3 86.26c-8.37 26.34-11.99 56.3-11.99 91.06v206.1z"/><path d="m2879.27 520.05v-236.06h-65.89v-77.89h68.29v-146.18h93.46v146.18h122.24v77.89h-122.24v224.07c0 19.19 2.4 35.94 8.37 50.33 4.8 14.39 11.99 25.16 19.19 33.54 7.2 8.37 16.79 14.39 26.34 19.19 10.77 4.8 19.19 7.2 27.56 8.37 8.37 1.18 16.79 2.4 25.16 2.4l22.76-2.4v86.26c-9.59 1.18-20.37 2.4-33.54 2.4-15.57 0-31.14-1.18-45.53-2.4-14.39-2.4-31.14-7.2-50.33-14.39-19.19-8.37-34.76-17.97-47.93-31.14s-25.16-31.14-34.76-55.12c-8.36-25.13-13.15-53.91-13.15-85.05z"/></g></svg>