<svg viewBox="0 0 842.04 156.68" xmlns="http://www.w3.org/2000/svg"><g fill="#5e6c75"><path d="m281.44 122.12c-12.55 0-23.28-2.42-32.19-7.25-8.62-4.52-15.62-11.6-20.06-20.26-4.46-8.67-6.69-18.88-6.69-30.61s2.52-22.67 7.57-32.12c4.87-9.27 12.27-16.97 21.34-22.2 9.18-5.33 19.64-8 31.39-8 15.11 0 27.9 3.9 38.36 11.7l-6.16 10.62c-9.24-6.31-19.87-9.47-31.88-9.47-8.29-.15-16.45 2.04-23.54 6.32-6.78 4.2-12.23 10.24-15.69 17.43-3.74 7.79-5.62 16.35-5.48 25 0 14 3.74 25.14 11.21 33.43s18.31 12.44 32.51 12.45c9.66 0 18.15-1.39 25.47-4.16v-33h-29.52v-13h44.68v54.62c-12.39 5.67-26.16 8.5-41.32 8.5z"/><path d="m379.14 122.12c-13.08 0-23.47-3.89-31.16-11.66s-11.54-18.07-11.53-30.9c0-12.67 3.7-23.06 11.09-31.19s17.18-12.21 29.35-12.26c7.68 0 14.26 1.79 19.73 5.36 5.43 3.53 9.68 8.61 12.18 14.58 2.78 6.78 4.14 14.05 4 21.38 0 1-.08 2.32-.24 3.92h-60.89c.16 9.19 2.8 16.28 7.93 21.27s11.91 7.48 20.34 7.48c9.48.11 18.71-3.11 26.06-9.1l4.41 10.9c-8.78 6.81-19.2 10.22-31.27 10.22zm-27.07-50.85h47.17c-.54-7.53-2.73-13.32-6.57-17.38s-8.96-6.09-15.37-6.09c-6.22-.19-12.27 2.05-16.86 6.25-4.51 4.16-7.3 9.9-8.37 17.22z"/><path d="m464.5 122.12c-13.33 0-23.73-3.95-31.2-11.85s-11.22-18.21-11.25-30.92c0-12.9 3.78-23.35 11.33-31.35s17.98-11.98 31.28-11.93c13.24 0 23.54 3.96 30.91 11.89s11.05 18.38 11.05 31.35-3.74 23.02-11.21 30.92-17.78 11.86-30.91 11.89zm0-12c8.67 0 15.27-2.8 19.82-8.4s6.83-13.05 6.85-22.35c0-9.45-2.31-17.02-6.93-22.7s-11.23-8.52-19.82-8.53c-8.67 0-15.32 2.84-19.95 8.53s-6.97 13.25-7 22.7c0 9.29 2.31 16.74 6.93 22.35s11.32 8.41 20.1 8.38z"/><path d="m533.32 120.36v-103.71h-37.24v-12.89h90v12.89h-37.47v103.71z"/><path d="m585.76 120.36v-62c0-1.81-.1-4.4-.28-7.77s-.36-6.27-.52-8.72l-.25-3.69h15.62l.16 12.82c4.97-9.82 12.31-14.73 22-14.73 2.8-.01 5.6.32 8.32 1l-.08 13c-2.93-.82-5.96-1.25-9-1.28-6.3 0-11.37 2.2-15.21 6.61s-5.76 10.74-5.77 19v45.77h-14.99z"/><path d="m672.4 122.2c-10.52 0-18.42-3-23.71-9s-7.93-14.07-7.92-24.2v-50.81h14.65v50.81c0 7.05 1.67 12.35 5 15.9s8.16 5.32 14.47 5.33c7.21 0 12.85-2.06 16.9-6.17s6.09-9.43 6.1-15.94v-49.93h14.73v61.81c0 7.33.24 14.12.72 20.35h-15l-.4-13.22c-2.36 4.29-5.71 7.95-9.77 10.69-4.19 2.92-9.44 4.38-15.77 4.38z"/><path d="m756.6 122.12c-11.26.16-22.27-3.33-31.39-9.93l4.08-11c3.6 2.53 7.52 4.58 11.65 6.08 4.61 1.8 9.51 2.72 14.46 2.73 10.89 0 16.33-4 16.34-12 .19-2.99-1.22-5.85-3.69-7.53-2.45-1.65-7.22-3.67-14.33-6.08l-7.05-2.39c-2.72-.96-5.03-1.87-6.93-2.73-2.01-.92-3.93-2.01-5.74-3.27-1.76-1.16-3.33-2.59-4.65-4.24-1.25-1.67-2.21-3.54-2.84-5.53-.75-2.37-1.12-4.84-1.08-7.33-.07-3.6.77-7.16 2.44-10.35 1.55-2.93 3.86-5.39 6.69-7.12 2.93-1.76 6.12-3.06 9.44-3.87 3.6-.9 7.29-1.34 11-1.32 10.84 0 19.97 2.37 27.39 7.12l-4.08 10.58c-6.62-3.69-14.05-5.68-21.63-5.77-5.28 0-9.36.91-12.25 2.73-2.74 1.56-4.4 4.51-4.32 7.66 0 3 .86 5.19 2.6 6.61s5.19 3.06 10.37 4.92c4.67 1.55 7.42 2.48 8.25 2.81 3.36 1.17 6 2.19 8.09 3 2.25.98 4.43 2.11 6.52 3.4 2.03 1.17 3.84 2.68 5.37 4.45 1.36 1.75 2.41 3.71 3.12 5.81.86 2.54 1.28 5.2 1.24 7.88.09 3.97-.76 7.91-2.48 11.49-1.51 3.12-3.84 5.78-6.73 7.69-2.83 1.85-5.94 3.24-9.21 4.12-3.47.94-7.05 1.4-10.65 1.38z"/><path d="m842 120.36h-6.8c-11.64-.11-19.61-2.2-23.91-6.25s-6.45-11.45-6.44-22.18v-43.93h-15.74v-9.81h16.09v-21.14l14.42-4.25v25.39h22.27v9.81h-22.27v44.73c-.05 2.39.15 4.78.6 7.13.33 1.64.97 3.2 1.88 4.6 1.01 1.36 2.45 2.33 4.09 2.76 2.06.63 4.18 1.04 6.32 1.24 2.35.24 5.52.36 9.53.36z"/></g><g fill-rule="evenodd"><path d="m74.5 39c16.22-11 33.5-15.34 47.82-13.24v-25.76h-122.32v123.47h41.82c-.51-.86-.97-1.74-1.38-2.65-11.55-24.43 3.66-61.05 34.06-81.82z" fill="#0174c3"/><path d="m121.64 39.86c-32.28.02-58.43 26.21-58.41 58.49 0 3.57.33 7.13.99 10.65 1.46 6.31 4.82 8.27 7.92 9.6 1.16.49 2.37.83 3.62 1 6.6.43 13.17-1.27 18.73-4.85 8.27-5.15 14.4-13.52 17.7-23.06-10.25 1.21-20.19 2.74-29.72 4.57l.18-18.32 65.61-4.38-.46 61.88-19.8 1.34v-.09c.1-.65.2-1.31.3-1.94.77-5.2 1.42-10.48 2-15.87.3-3.11.58-6.21.8-9.35-2.55 3.34-5.41 6.44-8.54 9.26-3 2.7-6.23 5.15-9.65 7.3-2.06 1.31-4.19 2.5-6.38 3.58-4.35 2.16-8.92 3.87-13.62 5.1-3.74.95-10.31 1.41-15.49 1.61 21.05 24.45 57.93 27.2 82.37 6.15 24.45-21.05 27.2-57.93 6.15-82.37-11.1-12.89-27.27-20.31-44.29-20.3h-.02z" fill="#f26f28"/></g></svg>