<svg viewBox="0 0 148.8 32" xmlns="http://www.w3.org/2000/svg"><g fill="#74cd71"><path d="m20.6 8.5c0 1.8-.5 3.5-1.6 4.9s-2.5 2.5-4.2 3.2l3.4 8.8h-5.1l-3-8.1h-3.7l-1.6 8.1h-4.8l4.6-23.3h9.2c2 0 3.7.6 5 1.8 1.2 1.2 1.8 2.8 1.8 4.6zm-12-2.1-1.3 6.6h4.2c1.2 0 2.3-.4 3.1-1.2s1.2-1.8 1.2-2.9c0-.8-.3-1.4-.8-1.8s-1.2-.7-2.2-.7z"/><path d="m38.7 7.4h3.6l-3.6 18h-3.4l-.1-1.7c-1.8 1.4-3.9 2.2-6.2 2.2s-4.3-.8-5.8-2.3-2.2-3.4-2.2-5.7c0-2 .5-3.8 1.4-5.5 1-1.7 2.3-3 4-4s3.5-1.5 5.5-1.5c1.2 0 2.3.2 3.3.7s1.8 1.1 2.5 2zm-8.9 14.1c1.6 0 3-.6 4.3-1.9s1.8-2.7 1.8-4.4c0-1.2-.4-2.2-1.2-2.9s-1.8-1.1-3.1-1.1c-1.6 0-3 .6-4.2 1.9s-1.8 2.7-1.8 4.4c0 1.2.4 2.1 1.1 2.9.8.8 1.8 1.1 3.1 1.1z"/><path d="m55.5 6.9c2.3 0 4.3.8 5.8 2.3s2.2 3.4 2.2 5.8c0 2-.5 3.8-1.4 5.5s-2.3 3-3.9 4c-1.7 1-3.5 1.5-5.5 1.5-2.1 0-3.9-.7-5.2-2l-1.6 8h-4.7l4.9-24.5h3.1l.4 1.7c1.7-1.5 3.7-2.3 5.9-2.3zm-2.8 14.6c1.6 0 3.1-.6 4.3-1.9s1.8-2.7 1.8-4.4c0-1.2-.4-2.1-1.1-2.9s-1.8-1.1-3-1.1c-1.6 0-3.1.6-4.3 1.9s-1.8 2.7-1.8 4.4c0 1.2.4 2.1 1.2 2.8.6.9 1.6 1.2 2.9 1.2z"/><path d="m64.6 25.4 3.6-18h4.6l-3.6 18z"/><path d="m91 1h4.6l-4.8 24.4h-3.3l-.3-1.7c-1.9 1.4-3.9 2.1-6.1 2.1s-4.1-.8-5.5-2.2c-1.4-1.5-2.2-3.4-2.2-5.7 0-2 .5-3.8 1.5-5.5s2.3-3 4-4 3.6-1.5 5.6-1.5 3.7.6 5.1 1.9l1.4-7.8zm-8.6 20.5c1.6 0 3-.6 4.2-1.8s1.8-2.6 1.8-4.3c0-1.2-.4-2.2-1.2-3s-1.8-1.1-3.1-1.1c-1.6 0-3 .6-4.2 1.8s-1.8 2.7-1.8 4.3c0 1.2.4 2.2 1.2 3 .7.7 1.8 1.1 3.1 1.1z"/></g><path d="m102.4 25.9c-2.3 0-4.2-.6-5.6-1.7s-2.1-2.7-2.1-4.6c0-.6.1-1.1.2-1.7h4.8c0 .2-.1.5-.1.7 0 .9.3 1.6.9 2.1s1.5.8 2.6.8c1.2 0 2.3-.3 3.2-1 .9-.6 1.3-1.5 1.3-2.5 0-.3-.1-.6-.2-.9-.2-.3-.4-.5-.6-.7s-.6-.4-1-.5c-.4-.2-.8-.3-1.1-.4s-.8-.2-1.3-.4c-.6-.1-1-.3-1.3-.4s-.7-.2-1.2-.4-.9-.4-1.2-.6-.7-.4-1-.7c-.4-.3-.7-.6-.9-.9s-.4-.7-.5-1.1c-.2-.4-.2-.9-.2-1.5 0-1.7.4-3.2 1.3-4.4.8-1.2 2-2.1 3.4-2.7s3.1-.9 5-.9c2.2 0 3.9.5 5.2 1.6s1.9 2.5 1.9 4.4c0 .5-.1 1.1-.2 1.6h-4.7c0-.2.1-.4.1-.6 0-.8-.3-1.4-.8-1.9-.6-.5-1.3-.7-2.3-.7-1.1 0-2.1.3-2.8.8-.8.5-1.1 1.2-1.1 2.2 0 .3.1.6.2.8.2.2.3.4.5.6s.5.3.9.5.8.3 1.1.4.7.2 1.3.4c.6.1 1 .3 1.3.4s.8.2 1.3.4 1 .4 1.3.6.7.4 1.1.7.7.6.9 1c.2.3.4.8.6 1.2.2.5.2 1 .2 1.6 0 1.8-.4 3.4-1.3 4.7s-2.1 2.3-3.6 2.9-3.5.8-5.5.8z"/><path d="m122.3 25.9c-2.3 0-4.2-.6-5.6-1.7s-2.1-2.7-2.1-4.6c0-.6.1-1.1.2-1.7h4.8c0 .2-.1.5-.1.7 0 .9.3 1.6.9 2.1s1.5.8 2.6.8c1.2 0 2.3-.3 3.2-1 .9-.6 1.3-1.5 1.3-2.5 0-.3-.1-.6-.2-.9s-.4-.5-.6-.7-.6-.4-1-.5-.8-.3-1.1-.4-.8-.2-1.3-.4c-.6-.1-1-.3-1.3-.4s-.7-.2-1.2-.4-.9-.4-1.2-.6-.7-.4-1-.7c-.4-.3-.7-.6-.9-.9s-.4-.7-.5-1.1c-.2-.4-.2-.9-.2-1.5 0-1.7.4-3.2 1.3-4.4.8-1.2 2-2.1 3.4-2.7s3.1-.9 5-.9c2.2 0 3.9.5 5.2 1.6s1.9 2.5 1.9 4.4c0 .5-.1 1.1-.1 1.6h-4.7c0-.2.1-.4.1-.6 0-.8-.3-1.4-.9-1.9s-1.3-.7-2.3-.7c-1.1 0-2.1.3-2.8.8-.8.5-1.1 1.2-1.1 2.2 0 .3.1.6.2.8.2.2.3.4.5.6s.5.3.9.5.8.3 1.1.4.7.2 1.3.4c.6.1 1 .3 1.3.4s.8.2 1.3.4 1 .4 1.3.6.7.4 1.1.7.7.6.9 1c.2.3.4.8.6 1.2.1.5.2 1 .2 1.6 0 1.8-.4 3.4-1.3 4.7s-2.1 2.3-3.6 2.9-3.5.8-5.5.8z"/><path d="m139.7 21.2h9.1l-.9 4.2h-13.9l4.7-23.3h4.8z"/><path d="m71.4 0c-1.4 0-2.7 1.3-2.7 2.7s1.3 2.7 2.7 2.7 2.7-1.3 2.7-2.7-1.2-2.7-2.7-2.7z" fill="#74cd71"/></svg>