<svg viewBox="0 0 1985.14 409.2" xmlns="http://www.w3.org/2000/svg"><path d="m308.26 19.4c5.7-8.5.5-19.3-9.4-19.3h-159.2c-33.5 0-60.2 8.9-79.9 26.7-19.7 17.7-31 43.1-34 76.3l-7.6 86.8c-2.8 33.2 4.1 58.6 20.7 76.3 16.7 17.8 41.8 26.7 75.3 26.7h36.4v-.2c7.2-1 11.1-5.4 11.8-13.1l3.7-42.6c.7-7.7-5-14-12.8-14h-20.2c-13.1 0-22.3-2.9-27.6-8.6-5.2-5.7-7.2-15.4-6.1-29l6.8-77.8c1.2-13.6 4.9-23.2 11.1-28.9s15.9-8.6 29.1-8.6h107.4c12.7 0 25-6.7 32.3-17.7z" fill="#00af73"/><path d="m2.36 389.9c-5.7 8.5-.5 19.3 9.4 19.3h161.5c33.5 0 60.2-8.9 79.9-26.7 19.7-17.7 31-43.1 34-76.3l7.6-86.8c2.8-33.2-4.1-58.6-20.7-76.3-16.7-17.8-41.8-26.7-75.3-26.7h-36.4v.2c-7.2 1-11.1 5.4-11.8 13.1l-3.7 42.6c-.7 7.7 5 14 12.8 14h20.4c13.1 0 22.3 2.9 27.6 8.6 5.2 5.7 7.2 15.4 6.1 28.9l-6.8 77.8c-1.2 13.6-4.9 23.2-11.1 28.9s-15.9 8.6-29.1 8.6h-109.8c-12.7 0-25 6.7-32.3 17.7l-22.3 33.1z" fill="#00af73"/><g fill="#091b2a"><path d="m550.06 409.2h-208c-8.9 0-13-4.4-12.2-13.4l33.5-382.3c.8-8.9 5.6-13.4 14.5-13.4h208c8.5 0 12.3 4.4 11.6 13.4l-3.8 43.3c-.8 8.9-5.4 13.4-13.9 13.4h-133c-5.1 0-7.8 2.3-8.2 7l-7.2 82.7c-.4 4.7 1.9 7 7 7h108.8c8.9 0 13 4.5 12.2 13.4l-3.8 43.3c-.8 8.9-5.6 13.4-14.5 13.4h-108.8c-5.1 0-7.8 2.3-8.2 7l-7.7 88.4c-.4 4.7 1.9 7 7 7h132.9c8.5 0 12.3 4.5 11.6 13.4l-3.8 43.3c-.9 8.6-5.5 13.1-14 13.1"/><path d="m774.46 409.2h-69.3c-33.5 0-58.6-8.9-75.3-26.7s-23.6-43.5-20.6-77l17.6-201.7c2.9-33.5 14.3-59.2 34.1-77s46.4-26.7 79.9-26.7h69.3c33.1 0 58.1 9 74.9 27 16.9 18 23.9 43.6 21 76.6l-2.6 29.9c-.8 9.3-5.9 14-15.2 14h-53.4c-8.9 0-13-4.7-12.1-14l2.3-26.1c1.2-13.6-.8-23.2-6.1-28.9-5.2-5.7-14.6-8.6-28.2-8.6h-43.3c-13.1 0-22.8 2.9-29.1 8.6-6.2 5.7-9.9 15.4-11.1 28.9l-17 194c-1.2 13.6.8 23.2 6.1 28.9 5.2 5.7 14.4 8.6 27.6 8.6h43.3c13.6 0 23.5-2.9 29.7-8.6s9.9-15.4 11.1-28.9l2.3-26.1c.8-9.3 5.7-14 14.6-14h53.4c9.3 0 13.6 4.7 12.8 14l-2.6 29.9c-2.9 33.1-14.4 58.6-34.4 76.6-20.1 18.3-46.6 27.3-79.7 27.3"/><path d="m1070.06 409.2h-53.4c-9.3 0-13.6-4.4-12.8-13.4l27.9-318.7c.4-4.7-1.7-7-6.4-7h-72.5c-8.9 0-13-4.4-12.2-13.4l3.8-43.3c.8-8.9 5.6-13.4 14.5-13.4h240.4c8.9 0 13 4.4 12.2 13.4l-3.8 43.3c-.8 8.9-5.6 13.4-14.5 13.4h-72.5c-5.1 0-7.8 2.3-8.2 7l-27.9 318.7c-.9 8.9-5.7 13.4-14.6 13.4"/><path d="m1333.56 13.5-33.5 382.3c-.8 8.9-5.6 13.4-14.5 13.4h-54.1c-8.9 0-13-4.5-12.2-13.4l33.5-382.3c.8-8.9 5.6-13.4 14.5-13.4h54.1c8.9 0 13 4.5 12.2 13.4"/><path d="m1800.46 339.2h45.2c13.6 0 23.5-2.9 29.7-8.6s9.9-15.4 11.1-28.9l17-194c1.2-13.6-.8-23.2-6.1-28.9-5.2-5.7-14.6-8.6-28.2-8.6h-45.2c-13.6 0-23.4 2.9-29.4 8.6s-9.6 15.4-10.8 28.9l-17 194c-1.2 13.6.7 23.2 5.7 28.9 5.2 5.7 14.4 8.6 28 8.6m52.4 70h-71.2c-33.5 0-58.6-8.9-75.3-26.7s-23.6-43.5-20.6-77l17.6-201.7c2.9-33.5 14.3-59.2 34.1-77s46.4-26.7 79.9-26.7h71.2c33.5 0 58.6 8.9 75.3 26.7s23.6 43.5 20.6 77l-17.6 201.7c-2.9 33.5-14.3 59.2-34.1 77-19.7 17.8-46.4 26.7-79.9 26.7"/><path d="m1582.56 136.9h54.1c8.9 0 13.8-4.7 14.6-14l1.7-19.1c2.9-33.1-4-58.6-20.6-76.7-16.7-18-41.5-27-74.6-27h-67.4c-33.5 0-60.2 8.9-79.9 26.7-19.8 17.8-31.2 43.5-34.1 77l-17.6 201.7c-2.9 33.5 3.9 59.2 20.6 77s41.8 26.7 75.3 26.7h67.4c33.1 0 59.5-9 79.3-27s31.2-43.6 34.1-76.7l9.3-106.2c.9-9.8-3.6-14.6-13.4-14.6h-125.9c-9.9 0-17 10.7-12.8 19.3l16.4 33c5.4 10.9 16.6 17.7 29.2 17.7h13.8c4.7 0 6.8 2.3 6.4 7l-3.5 40.1c-1.2 13.6-4.8 23.2-10.8 29-6 5.7-15.8 8.6-29.4 8.6h-41.4c-13.1 0-22.3-2.9-27.6-8.6-5.2-5.7-7.2-15.4-6.1-29l17-194c1.2-13.6 4.9-23.2 11.1-28.9s15.9-8.6 29.1-8.6h41.4c13.6 0 22.9 2.9 27.9 8.6s6.9 15.4 5.7 28.9l-1.3 15.3c-1 9.1 3.1 13.8 12 13.8"/></g></svg>