<svg xmlns="http://www.w3.org/2000/svg" viewBox="0 0 2743 1830" cursor="none"><style>
@keyframes a_t { 0% { transform: translate(1425.7px,359px) scale(1.6,1.6) translate(-166px,-217.5px); animation-timing-function: cubic-bezier(.4,0,.6,1); } 46.667% { transform: translate(1425.7px,401.8px) scale(1.6,1.6) translate(-166px,-217.5px); animation-timing-function: cubic-bezier(.4,0,.6,1); } 100% { transform: translate(1425.7px,359px) scale(1.6,1.6) translate(-166px,-217.5px); } }
</style><defs/><ellipse cx="162.1" cy="56" class="f" rx="34.4" ry="34.5" fill="#e2eaff"/><ellipse cx="262.5" cy="56" class="f" rx="34.4" ry="34.5" fill="#e2eaff"/><ellipse cx="362.9" cy="56" class="f" rx="34.4" ry="34.5" fill="#e2eaff"/><path d="M879.4 599.8c-1.2 0-2.2-1-2.2-2.2v-539.4h-443.9c-1.2 0-2.2-1-2.2-2.2c0-1.2 1-2.2 2.2-2.2h446.1c1.2 0 2.2 1 2.2 2.2v541.6c0 1.2-1 2.2-2.2 2.2Z"/><path class="e" d="M2355 1239.1c0 30.6-24.8 55.5-55.3 55.5h-1628.3c-30.6 0-55.3-24.8-55.3-55.5v-20.3l20.8-18.6l1685.6-2.6l32.6 21.1v20.3Z" fill="#fff"/><path class="e" d="M680.4 179h1610.3c35.5 0 64.3 28.8 64.3 64.3v975.4h-1739v-975.4c0-35.5 28.8-64.3 64.3-64.3Z" fill="#fff"/><path d="M2355 1220.9h-1739c-1.2 0-2.2-1-2.2-2.2v-975.4c0-36.7 29.8-66.5 66.5-66.5h1610.3c36.7 0 66.5 29.8 66.5 66.5v975.4c0 1.2-1 2.2-2.2 2.2Zm-1736.7-4.4h1734.5v-973.2c0-34.3-27.9-62.1-62.1-62.1h-1610.3c-34.3 0-62.1 27.9-62.1 62.1v973.2Z"/><path d="M2295.6 1161.4h-1620.2c-1.2 0-2.2-1-2.2-2.2v-914.2c0-4.8 3.9-8.6 8.6-8.6h1607.3c4.8 0 8.6 3.9 8.6 8.6v914.2c0 1.2-1 2.2-2.2 2.2Zm-1617.9-4.4h1615.7v-912c0-2.3-1.9-4.2-4.2-4.2h-1607.3c-2.3 0-4.2 1.9-4.2 4.2v912Z"/><path d="M2299.6 1296.7h-1628.2c-31.7 0-57.5-25.9-57.5-57.7c0-31.8 1-2.2 2.2-2.2c1.2 0 2.2 1 2.2 2.2c0 29.4 23.8 53.3 53.1 53.3h1628.2c29.3 0 53.1-23.9 53.1-53.3c0-29.4 1-2.2 2.2-2.2c1.2 0 2.2 1 2.2 2.2c0 31.8-25.8 57.7-57.5 57.7Z"/><path class="e" d="M1168.1 1294.5h634.8v113.9c0 30.1-24.4 54.5-54.5 54.5h-525.8c-30.1 0-54.5-24.4-54.5-54.5v-113.9Z" fill="#fff"/><path d="M1748.4 1465.2h-525.8c-31.3 0-56.7-25.4-56.7-56.7v-113.9c0-1.2 1-2.2 2.2-2.2h634.8c1.2 0 2.2 1 2.2 2.2v113.9c0 31.3-25.4 56.7-56.7 56.7Zm-578.1-168.4v111.7c0 28.8 23.5 52.3 52.3 52.3h525.8c28.8 0 52.3-23.5 52.3-52.3v-111.7h-630.4Z"/><path d="M1779.3 1336.3h-587.5c-1.2 0-2.2-1-2.2-2.2c0-1.2 1-2.2 2.2-2.2h587.5c1.2 0 2.2 1 2.2 2.2c0 1.2-1 2.2-2.2 2.2Z"/><path class="f" d="M1949.3 414h-638.8c-15.2 0-27.5-12.3-27.5-27.5c0-15.2 12.3-27.5 27.5-27.5h638.8c15.2 0 27.5 12.3 27.5 27.5c0 15.2-12.3 27.5-27.5 27.5Z" fill="#e2eaff"/><path class="f" d="M2723 414h-638.8c-15.2 0-27.5-12.3-27.5-27.5c0-15.2 12.3-27.5 27.5-27.5h638.8c15.2 0 27.5 12.3 27.5 27.5c0 15.2-12.3 27.5-27.5 27.5Z" fill="#e2eaff"/><path class="f" d="M1858.3 557.9h-547.8c-15.2 0-27.5-12.3-27.5-27.5c0-15.2 12.3-27.5 27.5-27.5h547.8c15.2 0 27.5 12.3 27.5 27.5c0 15.2-12.3 27.5-27.5 27.5Z" fill="#e2eaff"/><path class="f" d="M2599.3 557.9h-606.1c-15.2 0-27.5-12.3-27.5-27.5c0-15.2 12.3-27.5 27.5-27.5h606.1c15.2 0 27.5 12.3 27.5 27.5c0 15.2-12.3 27.5-27.5 27.5Z" fill="#e2eaff"/><path class="f" d="M2017.6 701.8h-523.3c-15.2 0-27.5-12.3-27.5-27.5c0-15.2 12.3-27.5 27.5-27.5h523.3c15.2 0 27.5 12.3 27.5 27.5c0 15.2-12.3 27.5-27.5 27.5Z" fill="#e2eaff"/><path class="f" d="M2517.3 701.8h-364.8c-15.2 0-27.5-12.3-27.5-27.5c0-15.2 12.3-27.5 27.5-27.5h364.8c15.2 0 27.5 12.3 27.5 27.5c0 15.2-12.3 27.5-27.5 27.5Z" fill="#e2eaff"/><path class="f" d="M1881.1 845.7h-570.5c-15.2 0-27.5-12.3-27.5-27.5c0-15.2 12.3-27.5 27.5-27.5h570.5c15.2 0 27.5 12.3 27.5 27.5c0 15.2-12.3 27.5-27.5 27.5Z" fill="#e2eaff"/><path class="f" d="M2723 845.7h-707c-15.2 0-27.5-12.3-27.5-27.5c0-15.2 12.3-27.5 27.5-27.5h707c15.2 0 27.5 12.3 27.5 27.5c0 15.2-12.3 27.5-27.5 27.5Z" fill="#e2eaff"/><path class="f" d="M2063.1 989.7h-568.8c-15.2 0-27.5-12.3-27.5-27.5c0-15.2 12.3-27.5 27.5-27.5h568.8c15.2 0 27.5 12.3 27.5 27.5c0 15.2-12.3 27.5-27.5 27.5Z" fill="#e2eaff"/><path class="f" d="M2585.6 989.7h-387.7c-15.2 0-27.5-12.3-27.5-27.5c0-15.2 12.3-27.5 27.5-27.5h387.7c15.2 0 27.5 12.3 27.5 27.5c0 15.2-12.3 27.5-27.5 27.5Z" fill="#e2eaff"/><rect x="9.7" y="631.2" class="e" width="1079.8" height="886.6" fill="#fff"/><path d="M1089.5 1520.1h-1079.8c-1.2 0-2.2-1-2.2-2.2v-886.6c0-1.2 1-2.2 2.2-2.2h1079.8c1.2 0 2.2 1 2.2 2.2v886.6c0 1.2-1 2.2-2.2 2.2Zm-1077.6-4.4h1075.4v-882.2h-1075.4v882.2Z"/><path class="e" d="M482.4 631.2l-22.6 151.4l-12.7 .7c0 0 28.9 90.4 104.2 102.9c75.3 12.5 67.4-74.3 67.4-74.3l-44.1-20l15.1-122l-107.3-38.6Z" fill="#fff"/><path d="M574.6 794c0 0-0.2 0-0.3 0c-1.2-0.1-2.1-1.2-1.9-2.5l14.8-120.2l-103.1-37.1l-22.2 148.7c-0.2 1.2-1.3 2-2.5 1.9c-1.2-0.2-2-1.3-1.9-2.5l22.6-151.4c0-0.7 .5-1.2 1.1-1.6c.6-0.3 1.3-0.4 1.9-0.2l107.3 38.6c1 .3 1.6 1.3 1.4 2.3l-15.1 122c-0.1 1.1-1.1 1.9-2.2 1.9Z"/><path d="M665.2 529.7c14.1-9.7 25.1-24.6 27.9-41.5c3.3-20.3-5.9-41.4-21.1-55.2c-15.2-13.8-35.7-20.8-56.2-22.3c-20.5-1.5-41 2.1-60.8 7.4c-19.9 5.3-39.7 12.4-56.5 24.4c-16.8 12-30.4 29.4-34.6 49.6c-9.4-2.5-18.8 4.1-25.3 11.5c-18 20.5-25.1 50.2-18.2 76.6c6.8 26.5 27.4 48.9 53 58.1c30 10.7 64.6 3.1 90.6-15.3c21.2-15 37.2-36.4 48.5-59.6c5.4-11 5.2-16.9 17.7-19.7c12.4-2.7 24.3-6.9 34.8-14.1Z"/><path class="e" d="M484.3 605.1c-3.7-8.5-15.4-11.4-23.8-7.3c-8.3 4.1-13.2 13.3-14.4 22.5c-1.6 12.4 2.9 25.8 12.6 33.7c9.7 7.9 24.4 9.5 35 2.8c19.5 20.8 47 41.1 75.4 43c16 1.1 33-1.6 45.4-11.7c8.7-7.1 14.4-17.2 17.7-27.9c3.3-10.7 4.2-22 4.6-33.2c1-32.3-3.1-64.7-11.9-95.7c-1.4-5-3-10.1-6.3-14.2c-4.6-5.8-11.8-8.7-18.8-10.8c-16.1-4.7-33.5-6-49.7-1.9c-16.3 4.1-31.4 13.9-40.3 28.2c-8.6 13.7-11 30.4-10.2 46.5c.9 16.4-15.3 26-15.3 26Z" fill="#fff"/><path d="M575.7 702.3c-2.3 0-4.6 0-6.7-0.2c-32.5-2.2-60.9-26.9-75.7-42.4c-11 6-25.8 4.5-36-3.9c-9.9-8.1-15.1-22.1-13.3-35.7c1.5-11.1 7.3-20.1 15.6-24.2c5-2.5 11.2-2.7 16.7-0.7c3.3 1.2 6.1 3.2 8 5.7l13.1-22.2c-0.9-18.5 2.8-34.8 10.5-47.2c8.8-14.1 24-24.7 41.6-29.2c15.6-3.9 33.2-3.3 50.9 1.9c6.5 1.9 14.7 5 19.9 11.6c3.5 4.4 5.2 9.8 6.7 15c8.9 31.4 12.9 63.8 12 96.4c-0.3 10.2-1.1 22.1-4.7 33.7c-3.7 12.2-10.1 22.2-18.4 29c-12.2 9.9-27.7 12.5-40.3 12.5Zm-81.9-47.6c.6 0 1.2 .2 1.6 .7c13.9 14.9 42 40.1 74 42.3c12.7 .9 30.6-0.4 43.9-11.3c7.6-6.2 13.5-15.5 17-26.9c3.4-11.1 4.2-22.7 4.5-32.6c1-32.1-3-64.1-11.8-95c-1.4-4.9-2.9-9.7-5.9-13.4c-4.4-5.6-11.8-8.3-17.7-10.1c-16.9-5-33.7-5.7-48.6-1.9c-16.6 4.2-30.8 14.1-39 27.2c-7.4 11.8-10.8 27.4-9.8 45.3c0 .4 0 .9-0.3 1.2l-15.3 26c-0.4 .7-1.2 1.1-2 1.1c-0.8 0-1.6-0.6-1.9-1.3c-1.3-3.1-4-5.5-7.5-6.8c-4.3-1.6-9.3-1.4-13.2 .5c-6.9 3.4-11.9 11.4-13.2 20.8c-1.6 12.1 3 24.6 11.8 31.8c9.3 7.6 22.9 8.7 32.4 2.7c.4-0.2 .8-0.3 1.2-0.3Z"/><path d="M479.4 639.2c-1.1 0-2-0.8-2.2-1.9c-1.1-7.1-6.1-13.4-12.8-16c-1.1-0.4-1.7-1.7-1.3-2.9c.4-1.1 1.7-1.7 2.9-1.3c8.1 3.2 14.2 10.8 15.6 19.4c.2 1.2-0.6 2.3-1.8 2.5c-0.1 0-0.2 0-0.3 0Z"/><path d="M708.6 1515.7c5.6-127.1 10.5-181.6 10.6-183.7l-492.5 19.3l-50.6 164.4h532.5Z"/><path class="e" d="M1405.2 945c5.9-20.3 10.4-40 13.2-58.5c2.2-14.8 13.9-26.5 28.5-29.5c95.6-19.7 116.6-81.5 116.6-81.5c2.2-5 1.4-10.6-0.7-16c-5.6-13.9-21.4-20.5-35.7-16c-27.7 8.7-79.6 13.6-152 14.8c-52.4 .9-90 15.9-110.5 45.5c-9.3 13.4-18 30.1-26.9 47.9l167.5 93.3Z" fill="#fff"/><path d="M1405.2 947.2c-0.2 0-0.4 0-0.6 0c-1.2-0.3-1.8-1.6-1.5-2.7c6-20.5 10.4-40.1 13.2-58.2c2.4-15.5 14.5-28.1 30.3-31.4c93.1-19.2 114.7-79.4 114.9-80c1.8-4.1 1.5-8.9-0.7-14.4c-5-12.5-19.5-19-33-14.8c-27.6 8.7-78.9 13.7-152.6 14.9c-52.2 .9-88.8 15.9-108.8 44.6c-9.7 14-18.9 31.9-26.7 47.6c-0.5 1.1-1.9 1.5-3 1c-1.1-0.5-1.5-1.9-1-3c7.9-15.8 17.1-33.9 27-48.2c20.8-29.9 58.6-45.6 112.3-46.5c73.3-1.2 124.2-6.2 151.4-14.7c15.6-4.9 32.5 2.7 38.4 17.3c2.7 6.7 2.9 12.6 .7 17.7c-0.1 .5-22.4 63-118.2 82.8c-13.9 2.9-24.7 14-26.8 27.7c-2.8 18.3-7.3 38.1-13.3 58.8c-0.3 1-1.2 1.6-2.1 1.6Z"/><path d="M1459.5 819.5c-1.1 0-2.1-0.8-2.2-1.9c-0.1-1.2 .7-2.3 1.9-2.5c32.9-3.9 64.7-13 94.7-27c0-0.2 0-0.4 .2-0.6c.5-1.1 1.7-1.7 2.9-1.2l1.4 .6c.8 .3 1.4 1.1 1.4 2c0 .9-0.5 1.7-1.3 2.1c-31.2 14.9-64.4 24.5-98.7 28.6c0 0-0.2 0-0.3 0Z"/><path class="d" d="M208 1140.6l20.7 211.7l180.4 2.1l-201.1-213.8Z" stroke-width="5px" fill="#d6e1e6" stroke-miterlimit="10" stroke="#000"/><path class="d" d="M1237.6 852.3c-5.3 10.5-7.6 15.6-12.3 26.5c-26.3 61.2-65.4 155-163.3 141.3c-61-8.5-147.9-87.7-204.6-146.1c-39.8-41-93-66.2-149.8-71.4l-117.9-10.8l-8.7-33.5l-22.9 25.9l-16.5-20.5l-90.1-30.9l-18.6 51.4c0 0-102.3-7.7-202.5 34.3c-128.9 54-97.5 243.6-58.4 316.5c39.1 72.9 109 319.8 310.5 314.1c201.5-5.7 315.8-210.2 315.8-210.2l242.4 22.2c240.4-7.1 331.4-201.6 364.3-316.8c3.9-13.8-167.2-92.1-167.2-92.1Z" stroke-width="5px" fill="#d6e1e6" stroke-miterlimit="10" stroke="#000"/><path d="M527.6 836.2c-0.2 0-0.4 0-0.6 0c-33.3-9.6-65.2-23.5-95-41.3c-1-0.6-1.4-2-0.8-3c.6-1 2-1.4 3-0.8c28.8 17.2 59.8 30.8 91.9 40.3l7.1-20.6c.4-1.2 1.6-1.8 2.8-1.4c1.2 .4 1.8 1.7 1.4 2.8l-7.8 22.6c-0.3 .9-1.2 1.5-2.1 1.5Z"/><path d="M576.4 827.8c-0.5 0-0.9-0.1-1.3-0.4c-1-0.7-1.2-2.1-0.4-3.1l15.4-20.6c.7-1 2.1-1.2 3.1-0.4c1 .7 1.2 2.1 .4 3.1l-15.4 20.6c-0.4 .6-1.1 .9-1.8 .9Z"/><path class="c" d="M638.9 1105.2l-68.9-283l-1.2-29.9l-10.8 .9l-15.1 1.2l8 31.2l45.8 306.3l42.2-26.7Z" stroke-width="5px" fill="#fff" stroke-miterlimit="10" stroke="#000"/><path d="M471 1220.4c-0.8 0-1.6-0.4-1.9-1.2l-89-167.9c-6.3-11.8-7.3-25.8-2.8-38.4c.4-1.1 1.7-1.7 2.8-1.3c1.1 .4 1.7 1.7 1.3 2.8c-4.1 11.4-3.2 24.1 2.5 34.9l89 167.9c.6 1.1 .2 2.4-0.9 3c-0.3 .2-0.7 .3-1 .3Z"/><path d="M454 1235.4c-0.6 0-1.3-0.3-1.7-0.8c-0.8-1-0.6-2.3 .4-3.1c1.5-1.2 151.6-120 254.1-158.1c1.1-0.4 2.4 .2 2.8 1.3c.4 1.1-0.2 2.4-1.3 2.8c-101.8 37.8-251.4 156.2-252.9 157.4c-0.4 .3-0.9 .5-1.4 .5Z"/><path d="M282.8 1346.6c-0.8 0-1.5-0.4-1.9-1.1l-83.8-150.1c-0.6-1.1-0.2-2.4 .9-3c1.1-0.6 2.4-0.2 3 .9l83.8 150.1c.6 1.1 .2 2.4-0.9 3c-0.3 .2-0.7 .3-1.1 .3Z"/><path d="M735 1307.2c-0.5 0-1-0.2-1.5-0.6c-53.1-47.4-85.9-115.3-90-186.4c0-1.2 .9-2.3 2.1-2.3c1.2 0 2.3 .9 2.3 2.1c4.1 69.9 36.4 136.8 88.6 183.4c.9 .8 1 2.2 .2 3.1c-0.4 .5-1 .7-1.6 .7Z"/><path d="M1358.9 1015.4c-0.5 0-0.9-0.1-1.3-0.4c-45.8-34.6-95.1-65.3-146.3-91.3c-1.1-0.6-1.5-1.9-1-3c.5-1.1 1.9-1.5 3-1c51.5 26.1 100.9 56.9 146.9 91.7c1 .7 1.2 2.1 .4 3.1c-0.4 .6-1.1 .9-1.8 .9Z"/><path class="g" d="M189 983.5c1.9 0 1.9-3 0-3c-1.9 0-1.9 3 0 3Z" fill="#a6c0c8"/><path class="e" d="M1389.5 1801.8l-157.8-565.3h-453.1l157.8 565.3h453.1Z" fill="#fff"/><path d="M1389.5 1804h-453.1c-1 0-1.9-0.7-2.1-1.6l-157.8-565.3c-0.2-0.7 0-1.4 .4-1.9c.4-0.5 1.1-0.9 1.8-0.9h453.1c1 0 1.9 .7 2.1 1.6l157.8 565.3c.2 .7 0 1.4-0.4 1.9c-0.4 .5-1.1 .9-1.8 .9Zm-451.4-4.4h448.5l-156.6-560.9h-448.5l156.6 560.9Z"/><path class="e" d="M1165.8 1379.6h-224.5l-12.3-45h224.5l12.3 45Z" fill="#fff"/><path d="M1165.8 1381.8h-224.5c-1 0-1.9-0.7-2.1-1.6l-12.3-45c-0.2-0.7 0-1.4 .4-1.9c.4-0.5 1.1-0.9 1.8-0.9h224.5c1 0 1.9 .7 2.1 1.6l12.3 45c.2 .7 0 1.4-0.4 1.9c-0.4 .5-1.1 .9-1.8 .9Zm-222.8-4.4h219.9l-11.1-40.6h-219.9l11.1 40.6Z"/><path class="e" d="M1264.6 1586.4h-318.2l-42.9-161.3h318.2l42.9 161.3Z" fill="#fff"/><path d="M1264.6 1588.6h-318.2c-1 0-1.9-0.7-2.1-1.6l-43-161.2c-0.2-0.7 0-1.4 .4-1.9c.4-0.5 1.1-0.9 1.7-0.9h318.2c1 0 1.9 .7 2.1 1.6l43 161.2c.2 .7 0 1.4-0.4 1.9c-0.4 .5-1.1 .9-1.7 .9Zm-316.5-4.4h313.7l-41.8-156.8h-313.7l41.8 156.8Z"/><path class="e" d="M707.5 1075.5l55.5-17.6c144.9-37.9 212.2 41.9 246.1 144.7c6.2 18.8 11.5 35.8 15.2 48.8c4.3 15.1-11.1 28.2-25.3 21.6c-12-5.6-24.3-18.3-30.5-45.7c0 0 11.8 55.5-12.2 55.5c-24 0-33.8-34.3-33.8-34.3c0 0 6.5 34.3-12.2 34.3c-18.7 0-34.4-37.2-34.4-37.2c0 0 9 37.2-9.5 40c-9.7 1.4-19-4.3-30.7-24.9c-7.6-13.4-22-21.6-37.4-21.6c-23.3 0-44-14.8-51.6-36.9l-39.1-126.6Z" fill="#fff"/><path d="M863.6 1287.9c-10.4 0-19.7-8.3-30-26.2c-7.2-12.7-20.8-20.5-35.5-20.5c-24.2 0-45.8-15.4-53.7-38.4c-0.4-1.2 .2-2.4 1.4-2.8c1.2-0.4 2.4 .2 2.8 1.4c7.3 21.2 27.1 35.4 49.5 35.4c22.4 0 31.3 8.7 39.3 22.8c13 22.9 22.1 24.8 28.5 23.8c2.8-0.4 4.9-1.8 6.5-4.1c6.7-9.9 1.3-32.9 1.2-33.2c-0.3-1.1 .4-2.3 1.5-2.6c1.1-0.3 2.3 .3 2.7 1.4c.1 .4 13.3 35.8 32.3 35.8c19 0 5.3-1 7.1-3.2c5.6-6.7 4.1-22.9 3-28.5c-0.2-1.1 .5-2.2 1.6-2.5c1.1-0.3 2.3 .3 2.7 1.4c.1 .3 12.2 32.9 31.7 32.9c19.5 0 5.9-1.2 7.9-3.7c9.9-12.2 2.3-48.8 2.2-49.2c-0.3-1.2 .5-2.4 1.7-2.6c1.2-0.3 2.4 .5 2.6 1.7c5.2 22.7 15 37.5 29.3 44.2c5.8 2.7 12.4 1.8 17.2-2.3c4.9-4.1 6.8-10.5 5-16.7c-3.4-12.1-8.6-28.5-15.2-48.7c-42.2-128.2-121.8-175.1-243.4-143.3l-55.4 17.6c-1.2 .4-2.4-0.3-2.8-1.4c-0.4-1.2 .3-2.4 1.4-2.8l55.5-17.6c67.5-17.7 123.6-11 166.6 19.9c35.8 25.6 62.7 66.9 82.2 126.2c6.7 20.3 11.8 36.7 15.3 48.9c2.2 7.8-0.2 16-6.4 21.2c-6.2 5.3-14.6 6.4-22 2.9c-10.4-4.9-18.7-13.6-24.6-26.1c.6 11.2-0.3 23.9-5.9 30.8c-2.9 3.5-6.7 5.3-11.3 5.3c-14.4 0-24.7-13.8-30.5-24.3c0 6.7-1 14.6-5 19.5c-2.6 3.1-6.1 4.7-10.5 4.7c-13.5 0-23.9-13.9-30.1-25c.4 7.5-0.2 16.1-4 21.7c-2.3 3.4-5.5 5.4-9.5 6c-1 .2-2 .2-3 .2Z"/><path d="M968.3 1228.6c-1 0-1.9-0.7-2.1-1.7c-3.2-14.3-7.7-28.5-13.5-42c-0.5-1.1 0-2.4 1.2-2.9c1.1-0.5 2.4 0 2.9 1.2c5.9 13.8 10.5 28.1 13.7 42.7c.3 1.2-0.5 2.4-1.7 2.6c-0.2 0-0.3 0-0.5 0Z"/><path d="M921.8 1249.5c-1 0-2-0.7-2.2-1.8c-3.6-19.8-8.3-39.7-13.8-59.1c-0.3-1.2 .3-2.4 1.5-2.7c1.2-0.3 2.4 .3 2.7 1.5c5.6 19.5 10.3 39.5 13.9 59.5c.2 1.2-0.6 2.3-1.8 2.6c-0.1 0-0.3 0-0.4 0Z"/><path d="M875.8 1247.7c-1 0-1.9-0.7-2.1-1.7c-2.7-11-6.5-22.8-10.1-34.2c-1.9-5.9-3.6-11.5-5.2-16.8c-0.3-1.2 .3-2.4 1.5-2.7c1.2-0.3 2.4 .3 2.7 1.5c1.6 5.3 3.3 10.8 5.2 16.7c3.6 11.5 7.4 23.4 10.2 34.5c.3 1.2-0.4 2.4-1.6 2.7c-0.2 0-0.4 0-0.5 0Z"/><ellipse cx="1955.2" cy="1544.9" class="f" rx="34.4" ry="34.5" fill="#e2eaff"/><ellipse cx="2055.6" cy="1544.9" class="f" rx="34.4" ry="34.5" fill="#e2eaff"/><ellipse cx="2156" cy="1544.9" class="f" rx="34.4" ry="34.5" fill="#e2eaff"/><path d="M2584.4 1547.1h-358c-1.2 0-2.2-1-2.2-2.2c0-1.2 1-2.2 2.2-2.2h355.8v-384.9c0-1.2 1-2.2 2.2-2.2c1.2 0 2.2 1 2.2 2.2v387.1c0 1.2-1 2.2-2.2 2.2Z"/><g transform="translate(1425.7,359) scale(1.6,1.6) translate(-166,-217.5)" style="animation: 3s linear infinite both a_t;"><g style="isolation: isolate;"><g><path d="M166 0v435c0 0 149.4-49.1 165-162c0-54.2 1-222 1-222l-166-51Z" fill="#007ed9" fill-rule="evenodd"/></g></g><g style="isolation: isolate;"><g><path d="M0 51c0 0 1 167.8 1 222c15.6 112.9 165 162 165 162v-435l-166 51Z" fill="#0094ff" fill-rule="evenodd"/></g></g><g style="isolation: isolate;"><g><path d="M166.1 0l-166.1 51v25l165.7-51l166.3 51v-25l-165.9-51Z" fill="#006ab7" fill-rule="evenodd"/></g></g><g style="isolation: isolate;"><g><path d="M210 171h-88c-22.1 0-40 17.9-40 40v82c0 17.3 26.9 41 84 41c57.1 0 84-25.3 84-41v-82c0-22.1-17.9-40-40-40Zm-32 88.8v22.2h-24v-22.8c-6-4-10-10.9-10-18.7c0-12.4 10.1-22.5 22.5-22.5c12.4 0 22.5 10.1 22.5 22.5c0 8.2-4.4 15.4-11 19.3Z" fill="#fff" fill-rule="evenodd"/></g></g><g style="isolation: isolate;"><g><path d="M166.5 91c-44.5 0-63.5 49.2-63.5 84c0 50.7 127 50.7 127 0c0-34.8-19-84-63.5-84Zm-0.5 105c-18.2 0-36-5.1-36-25c0-19.9 9.6-51 36-51c26.4 0 36 31.1 36 51c0 19.9-17.8 25-36 25Z" fill="#fff" fill-rule="evenodd"/></g></g></g></svg>