<svg viewBox="0 0 332 435" xmlns="http://www.w3.org/2000/svg"><g fill-rule="evenodd"><path d="m166 0v435s149.3848-49.0879 165-162c0-54.166 1-222 1-222z" fill="#007ed9"/><path d="m0 51s1 167.834 1 222c15.6152 112.9121 164.9999 162 164.9999 162v-435z" fill="#0094ff"/><path d="m166.0769 0-166.0769 51v25l165.6979-51 166.3021 51v-25z" fill="#006ab7"/><g fill="#fff"><path d="m210 171h-88c-22.0915 0-40.0001 17.9086-40.0001 40v82c0 17.2722 26.8789 41 84.0001 41s83.9999-25.2871 83.9999-41v-82c0-22.0914-17.9084-40-39.9999-40zm-32 88.8387v22.1613h-23.9999v-22.7914c-6.0292-4.0364-10-10.9081-10-18.7086 0-12.4264 10.0736-22.5 22.4999-22.5s22.5001 10.0736 22.5001 22.5c0 8.2237-4.414 15.4138-11 19.3387z"/><path d="m166.4999 91c-44.4677 0-63.5 49.2061-63.5 84 0 50.6985 127 50.6985 127 0 0-34.7939-19.0322-84-63.5-84zm-.4999 105c-18.2254 0-35.9999-5.1178-35.9999-25s9.5936-51 35.9999-51 36 31.1178 36 51-17.7745 25-36 25z"/></g></g></svg>