<svg viewBox="0 0 2247.06 435" xmlns="http://www.w3.org/2000/svg"><path d="m166 0v435s149.38-49.09 165-162c0-54.17 1-222 1-222z" fill="#007ed9" fill-rule="evenodd"/><path d="m0 51s1 167.83 1 222c15.62 112.91 165 162 165 162v-435z" fill="#0094ff" fill-rule="evenodd"/><path d="m166.08 0-166.08 51v25l165.7-51 166.3 51v-25z" fill="#006ab7" fill-rule="evenodd"/><path d="m210 171h-88c-22.09 0-40 17.91-40 40v82c0 17.27 26.88 41 84 41s84-25.29 84-41v-82c0-22.09-17.91-40-40-40zm-32 88.84v22.16h-24v-22.79c-6.03-4.04-10-10.91-10-18.71 0-12.43 10.07-22.5 22.5-22.5s22.5 10.07 22.5 22.5c0 8.22-4.41 15.41-11 19.34z" fill="#fff" fill-rule="evenodd"/><path d="m166.5 91c-44.47 0-63.5 49.21-63.5 84 0 50.7 127 50.7 127 0 0-34.79-19.03-84-63.5-84zm-.5 105c-18.23 0-36-5.12-36-25s9.59-51 36-51 36 31.12 36 51-17.77 25-36 25z" fill="#fff" fill-rule="evenodd"/><g fill="#3e3e3e"><path d="m558.9 309.43c3.79 7.3 8.82 13.2 15.1 17.72 6.27 4.53 13.63 7.88 22.1 10.06 8.46 2.19 17.21 3.28 26.25 3.28 6.13 0 12.69-.51 19.69-1.53s13.56-2.99 19.69-5.91c6.13-2.91 11.23-6.93 15.31-12.03s6.13-11.6 6.13-19.47c0-8.46-2.7-15.32-8.1-20.57s-12.47-9.63-21.22-13.13-18.67-6.56-29.76-9.19-22.32-5.54-33.69-8.75c-11.67-2.91-23.05-6.49-34.13-10.72-11.09-4.23-21-9.7-29.76-16.41-8.75-6.71-15.83-15.1-21.22-25.16-5.4-10.06-8.1-22.24-8.1-36.54 0-16.04 3.43-29.97 10.28-41.79 6.85-11.81 15.82-21.66 26.91-29.54 11.08-7.88 23.63-13.71 37.63-17.5s28.01-5.69 42.01-5.69c16.33 0 32.01 1.83 47.04 5.47 15.02 3.65 28.37 9.56 40.04 17.72 11.66 8.17 20.93 18.6 27.79 31.29 6.85 12.69 10.28 28.08 10.28 46.16h-66.51c-.59-9.33-2.56-17.07-5.91-23.19-3.36-6.13-7.81-10.94-13.35-14.44-5.55-3.5-11.89-5.98-19.04-7.44s-14.95-2.19-23.41-2.19c-5.54 0-11.09.59-16.63 1.75-5.54 1.17-10.58 3.21-15.1 6.13-4.53 2.92-8.25 6.56-11.16 10.94-2.92 4.38-4.38 9.92-4.38 16.63 0 6.13 1.16 11.09 3.5 14.88 2.33 3.79 6.93 7.29 13.78 10.5s16.33 6.42 28.44 9.63c12.1 3.21 27.93 7.3 47.48 12.25 5.83 1.17 13.93 3.28 24.29 6.34 10.35 3.06 20.63 7.95 30.85 14.66 10.21 6.71 19.03 15.68 26.47 26.91s11.16 25.6 11.16 43.1c0 14.3-2.78 27.57-8.31 39.82-5.54 12.25-13.78 22.83-24.72 31.72-10.94 8.9-24.5 15.83-40.7 20.79s-34.94 7.44-56.23 7.44c-17.22 0-33.91-2.12-50.1-6.34-16.19-4.23-30.49-10.86-42.88-19.91-12.4-9.04-22.25-20.57-29.54-34.57-7.3-14-10.8-30.63-10.5-49.88h66.51c0 10.5 1.89 19.4 5.69 26.69z"/><path d="m842.88 309.43c3.79 7.3 8.82 13.2 15.1 17.72 6.27 4.53 13.63 7.88 22.1 10.06 8.46 2.19 17.21 3.28 26.25 3.28 6.13 0 12.69-.51 19.69-1.53s13.56-2.99 19.69-5.91c6.13-2.91 11.23-6.93 15.31-12.03s6.13-11.6 6.13-19.47c0-8.46-2.7-15.32-8.1-20.57s-12.47-9.63-21.22-13.13-18.67-6.56-29.76-9.19-22.32-5.54-33.69-8.75c-11.67-2.91-23.05-6.49-34.13-10.72-11.09-4.23-21-9.7-29.76-16.41-8.75-6.71-15.83-15.1-21.22-25.16-5.4-10.06-8.1-22.24-8.1-36.54 0-16.04 3.43-29.97 10.28-41.79 6.85-11.81 15.82-21.66 26.91-29.54 11.08-7.88 23.63-13.71 37.63-17.5s28.01-5.69 42.01-5.69c16.33 0 32.01 1.83 47.04 5.47 15.02 3.65 28.37 9.56 40.04 17.72 11.66 8.17 20.93 18.6 27.79 31.29 6.85 12.69 10.28 28.08 10.28 46.16h-66.51c-.59-9.33-2.56-17.07-5.91-23.19-3.36-6.13-7.81-10.94-13.35-14.44-5.55-3.5-11.89-5.98-19.04-7.44s-14.95-2.19-23.41-2.19c-5.54 0-11.09.59-16.63 1.75-5.54 1.17-10.58 3.21-15.1 6.13-4.53 2.92-8.25 6.56-11.16 10.94-2.92 4.38-4.38 9.92-4.38 16.63 0 6.13 1.16 11.09 3.5 14.88 2.33 3.79 6.93 7.29 13.78 10.5s16.33 6.42 28.44 9.63c12.1 3.21 27.93 7.3 47.48 12.25 5.83 1.17 13.93 3.28 24.29 6.34 10.35 3.06 20.63 7.95 30.85 14.66 10.21 6.71 19.03 15.68 26.47 26.91s11.16 25.6 11.16 43.1c0 14.3-2.78 27.57-8.31 39.82-5.54 12.25-13.78 22.83-24.72 31.72-10.94 8.9-24.5 15.83-40.7 20.79s-34.94 7.44-56.23 7.44c-17.22 0-33.91-2.12-50.1-6.34-16.19-4.23-30.49-10.86-42.88-19.91-12.4-9.04-22.25-20.57-29.54-34.57-7.3-14-10.8-30.63-10.5-49.88h66.51c0 10.5 1.89 19.4 5.69 26.69z"/><path d="m1143.05 74.01v254.67h152.28v57.76h-220.98v-312.43z"/><path d="m1304.52 109.02v-35.01h249.86v35.01h-104.14v277.43h-41.57v-277.43h-104.14z"/><path d="m1576.25 160.22v47.7h.88c9.04-18.38 20.13-31.94 33.26-40.7 13.13-8.75 29.76-12.83 49.88-12.25v39.38c-14.88 0-27.57 2.04-38.07 6.13s-18.97 10.06-25.38 17.94c-6.42 7.88-11.09 17.43-14 28.66-2.92 11.23-4.38 24.14-4.38 38.73v100.64h-37.19v-226.23h35.01z"/><path d="m1840.55 386.45v-35.88h-.88c-7.88 14-17.94 24.29-30.19 30.85s-26.69 9.85-43.32 9.85c-14.88 0-27.28-1.97-37.19-5.91-9.92-3.94-17.94-9.55-24.07-16.85-6.13-7.29-10.43-15.97-12.91-26.04-2.48-10.06-3.72-21.22-3.72-33.48v-148.78h37.19v153.15c0 14 4.08 25.09 12.25 33.26 8.16 8.17 19.4 12.25 33.69 12.25 11.38 0 21.22-1.75 29.54-5.25 8.31-3.5 15.24-8.46 20.79-14.88 5.54-6.41 9.7-13.93 12.47-22.54 2.77-8.6 4.16-18.01 4.16-28.22v-127.77h37.19v226.23h-35.01z"/><path d="m1960.01 335.9c3.5 5.69 8.09 10.21 13.78 13.57s12.1 5.76 19.25 7.22c7.14 1.46 14.51 2.19 22.1 2.19 5.83 0 11.96-.44 18.38-1.31 6.41-.88 12.32-2.47 17.72-4.81 5.39-2.33 9.85-5.76 13.35-10.28s5.25-10.28 5.25-17.29c0-9.63-3.65-16.92-10.94-21.88-7.3-4.96-16.41-8.97-27.35-12.03s-22.83-5.83-35.66-8.31c-12.84-2.47-24.72-5.98-35.66-10.5s-20.06-10.86-27.35-19.03c-7.3-8.16-10.94-19.54-10.94-34.13 0-11.38 2.55-21.15 7.66-29.32 5.1-8.16 11.66-14.8 19.69-19.91 8.02-5.1 17.07-8.9 27.13-11.38s20.05-3.72 29.97-3.72c12.83 0 24.65 1.09 35.44 3.28s20.35 5.98 28.66 11.38 14.95 12.69 19.91 21.88 7.88 20.64 8.75 34.35h-37.19c-.59-7.29-2.48-13.35-5.69-18.16s-7.29-8.68-12.25-11.6c-4.96-2.91-10.43-5.03-16.41-6.35-5.98-1.31-12.03-1.97-18.16-1.97-5.54 0-11.16.44-16.85 1.31-5.69.88-10.87 2.41-15.53 4.59-4.67 2.19-8.46 5.11-11.38 8.75-2.92 3.65-4.38 8.39-4.38 14.22 0 6.42 2.26 11.75 6.78 15.97 4.52 4.23 10.28 7.73 17.29 10.5 7 2.78 14.88 5.11 23.63 7 8.75 1.9 17.5 3.87 26.25 5.91 9.33 2.04 18.45 4.53 27.35 7.44 8.9 2.92 16.77 6.78 23.63 11.6 6.85 4.81 12.4 10.87 16.63 18.16 4.23 7.3 6.34 16.34 6.34 27.13 0 13.72-2.84 25.09-8.53 34.13-5.69 9.05-13.13 16.34-22.32 21.88s-19.55 9.41-31.07 11.6c-11.53 2.19-22.97 3.28-34.35 3.28-12.55 0-24.5-1.31-35.88-3.94-11.38-2.62-21.44-6.93-30.19-12.91s-15.75-13.85-21-23.63c-5.25-9.77-8.17-21.66-8.75-35.66h37.19c.29 8.17 2.19 15.1 5.69 20.79z"/><path d="m2247.06 160.22v32.82h-45.07v140.46c0 4.38.36 7.88 1.09 10.5s2.11 4.67 4.16 6.13c2.04 1.46 4.88 2.41 8.53 2.84 3.64.44 8.38.66 14.22.66h17.07v32.82h-28.44c-9.63 0-17.87-.66-24.72-1.97-6.86-1.31-12.4-3.72-16.63-7.22s-7.37-8.46-9.41-14.88c-2.04-6.41-3.06-14.88-3.06-25.38v-143.96h-38.51v-32.82h38.51v-67.83h37.19v67.83z"/></g></svg>