<svg viewBox="0 0 573.39 142.66" xmlns="http://www.w3.org/2000/svg"><path d="m273.08 54.27c-3.47-1.84-8.16-3.15-13.78-3.15-13.18 0-21.11 6.19-24.29 8.7l4.75-28h-18.69l-13.01 76.67h18.69l7.08-41.78c4.67-3.58 10.34-6.62 16.54-6.62 3.22 0 6 .97 7.83 2.6 3.41 3.04 2.78 7.6 1.9 12.84l-5.59 32.99h18.69l6.24-36.78c.83-4.88 2.13-12.58-6.31-17.4l-.03-.06zm49.45-3.81c-21.28 0-28.51 9.56-32.56 14.9l4.46 1.84c3.3-2.93 9.22-8.25 21.19-8.25 5.32 0 13.09 1.41 15.42 7.28.93 2.32.9 4.8.67 7.24h.4l-2.93 17.23h-.32l-1.09 6.44c-3.95 1.84-8.79 4.02-15.42 4.02-9.39 0-12.06-5.1-11.2-9.91 1.2-7.06 9.05-10.42 17.32-10.42 2.54 0 4.72.28 6.72.7l1.37-8.06c-3.43-.72-6.9-1.21-11.54-1.21-16.71 0-31.53 7.17-33.68 19.99-1.69 9.99 6.24 17.83 20.85 17.83 13.35 0 21.28-5.43 24.72-7.93l-1.06 6.3h18.09l5.69-33.6c.86-5.1 1.97-12.49-4.1-18-3.51-3.26-10.85-6.41-23-6.41l.02.02zm163.67 53.24c-1.4 0-7.01 0-9.56-4.88-1.09-1.84-1.54-4.13-.75-8.79l4.29-25.33h20.42l2-11.8h-20.42l2.56-15.08h-18.69l-2.56 15.08h-19.64l-17.06 27.65-2.99 5.22c-1.04-2.94-1.1-3.48-2.06-6.08l-9.73-26.79h-6.17l-24.21 32.82c-.52-2.71-.69-3.37-1.25-5.87l-7.22-26.96h-19.47l17.14 55.99h6.87l24.38-32.39 13.44 32.39h6.73l28.86-44.19h10.34l-4.67 27.65c-.83 4.88-.96 9.73 3.57 13.7 4.76 4.24 12.15 4.56 15.51 4.56 9.22 0 14.73-2.5 19.3-4.45l-1.65-3.47c-2.33.54-4.39 1.09-7.34 1.09l.05-.06zm38.51-30.06c-.25.37-.79 1.54-1.4 5.18-.25 1.42-.37 2.48-.43 3.3h49.79c.89-6.08 2.5-16.37-6.13-24.21-7.55-6.74-18.61-7.49-24.81-7.49-25.41 0-41.09 13.27-43.85 29.55-2.89 17.06 8.38 30.84 34.2 30.84s32.39-11.37 36.44-17.49l-4.33-1.74c-5.74 4.88-11.8 9.99-24.81 9.99-19.04 0-21.54-11.28-21.88-17.06-.09-.23-.41-1.39.22-5.24.65-3.94 1.47-5.44 1.64-5.72 3.02-6.38 7.06-13.96 20.42-13.96 14.04 0 14.04 9.13 14.04 14.13h-29.03l-.06-.09zm-331.66-35.84h-18.61l-9.22 54.53c-.83 4.88-.96 9.73 3.57 13.7 4.76 4.24 12.15 4.56 15.51 4.56 9.22 0 14.73-2.5 19.3-4.45l-1.65-3.47c-2.33.54-4.38 1.09-7.33 1.09-1.4 0-7.01 0-9.56-4.88-1.09-1.84-1.55-4.13-.76-8.79l4.29-25.33h15.08l1.99-11.72h-15.08l2.47-15.23z" fill="#004fa3"/><path d="m71.33 0c-39.37 0-71.33 31.96-71.33 71.33s31.96 71.33 71.33 71.33 71.33-31.96 71.33-71.33-31.96-71.33-71.33-71.33zm0 128.36c-31.53 0-57.11-25.58-57.11-57.11s25.58-57.12 57.11-57.12 57.11 25.58 57.11 57.11-25.58 57.11-57.11 57.11zm6.9-92.17h-18.69l-9.22 54.53c-.83 4.88-.96 9.73 3.57 13.7 4.75 4.24 12.15 4.56 15.51 4.56 9.22 0 14.73-2.5 19.3-4.45l-1.65-3.48c-2.33.54-4.39 1.09-7.34 1.09-1.4 0-7.01 0-9.56-4.89-1.09-1.84-1.55-4.13-.75-8.79l4.29-25.33h15.08l1.99-11.72h-15.08l2.57-15.22z" fill="#ed174c"/></svg>