<svg viewBox="0 0 854.23 209.74" xmlns="http://www.w3.org/2000/svg"><path d="m803.89 209.74h-17.76l14.58-36.43-37.02-92.45h19.37l26.62 72.52h.38l26.28-72.28h17.88l-50.34 128.64zm-62.84-99.84c-1.06-3.1-2.64-5.8-4.75-8.1s-4.75-4.1-7.92-5.4-6.86-1.96-11.08-1.96-7.86.78-11.27 2.33c-3.42 1.55-6.3 3.57-8.66 6.05s-4.19 5.25-5.49 8.29-1.96 6.05-1.96 9.03h52.9c-.12-3.73-.72-7.14-1.77-10.25zm-51.13 23.66c0 3.85.84 7.36 2.52 10.52 1.68 3.17 3.88 5.87 6.61 8.1s5.9 3.98 9.5 5.21c3.6 1.24 7.33 1.86 11.18 1.86 5.21 0 9.75-1.21 13.6-3.63s7.39-5.62 10.62-9.59l12.67 9.69c-9.31 12.05-22.35 18.07-39.12 18.07-6.96 0-13.26-1.18-18.91-3.54s-10.43-5.62-14.34-9.78-6.92-9.06-9.03-14.72c-2.11-5.65-3.17-11.76-3.17-18.35s1.15-12.7 3.45-18.35 5.46-10.55 9.5-14.72c4.03-4.16 8.85-7.42 14.44-9.78s11.67-3.54 18.25-3.54c7.82 0 14.44 1.37 19.84 4.1s9.84 6.3 13.32 10.71c3.47 4.41 5.99 9.38 7.54 14.9 1.55 5.53 2.33 11.15 2.33 16.86v5.96h-70.78zm-20.82 40.16h-23.84l-40.02-47.98v47.98h-16.76v-130.75h16.76v78.66l40.4-40.59h23.28l-43.57 42.45 43.74 50.22zm-114.79-58.69c-1.37-3.79-3.29-7.01-5.77-9.69-2.49-2.67-5.53-4.78-9.13-6.33s-7.64-2.33-12.11-2.33-8.51.78-12.11 2.33-6.64 3.67-9.13 6.33c-2.49 2.67-4.41 5.9-5.77 9.69-1.37 3.79-2.05 7.92-2.05 12.39s.68 8.6 2.05 12.39 3.29 7.02 5.77 9.69 5.52 4.78 9.13 6.33c3.6 1.55 7.64 2.33 12.11 2.33s8.5-.77 12.11-2.33c3.6-1.55 6.64-3.66 9.13-6.33 2.48-2.67 4.41-5.9 5.77-9.69 1.37-3.79 2.05-7.92 2.05-12.39s-.68-8.6-2.05-12.39zm16.3 30.55c-2.42 5.65-5.75 10.56-9.97 14.72s-9.19 7.45-14.9 9.87-11.86 3.63-18.44 3.63-12.73-1.21-18.44-3.63-10.68-5.71-14.9-9.87-7.54-9.06-9.97-14.72c-2.42-5.65-3.63-11.7-3.63-18.16s1.21-12.48 3.63-18.07 5.74-10.49 9.97-14.72c4.22-4.22 9.19-7.54 14.9-9.97 5.71-2.42 11.86-3.63 18.44-3.63s12.73 1.21 18.44 3.63 10.68 5.75 14.9 9.97 7.54 9.13 9.97 14.72c2.42 5.59 3.63 11.61 3.63 18.07s-1.21 12.51-3.63 18.16zm-95.86-45.84c-1.37-.37-3.08-.51-4.46-.63-1.68-.15-3.09-.19-4.46-.19-8.2 0-14.47 3.7-18.81 9.53-3.78 5.07-6.21 11.41-6.52 18.78v46.49h-16.76v-92.61h16.76v14.08h.37c1.12-2.36 2.61-4.5 4.47-6.43 1.86-1.92 3.78-3.4 6.24-4.46 2.4-1.03 4.74-1.79 7.54-2.3 2.6-.47 5.46-.73 8.2-.73s5.22.13 7.45.88l-.03 17.59zm-86.13 10.17c-1.06-3.1-2.64-5.8-4.75-8.1s-4.75-4.1-7.92-5.4-6.86-1.96-11.08-1.96-7.86.78-11.27 2.33c-3.42 1.55-6.3 3.57-8.66 6.05s-4.19 5.25-5.5 8.29c-1.3 3.04-1.96 6.05-1.96 9.03h52.9c-.12-3.73-.72-7.14-1.77-10.25zm-51.13 23.66c0 3.85.84 7.36 2.51 10.52 1.68 3.17 3.88 5.87 6.61 8.1s5.9 3.98 9.5 5.21c3.6 1.24 7.32 1.86 11.18 1.86 5.22 0 9.75-1.21 13.6-3.63s7.39-5.62 10.62-9.59l12.67 9.69c-9.31 12.05-22.35 18.07-39.12 18.07-6.96 0-13.26-1.18-18.91-3.54s-10.43-5.62-14.34-9.78-6.92-9.06-9.03-14.72c-2.11-5.65-3.17-11.76-3.17-18.35s1.15-12.7 3.45-18.35 5.46-10.55 9.5-14.72c4.03-4.16 8.85-7.42 14.44-9.78s11.67-3.54 18.25-3.54c7.82 0 14.44 1.37 19.84 4.1s9.84 6.3 13.32 10.71 5.99 9.38 7.54 14.9c1.55 5.53 2.33 11.15 2.33 16.86v5.96h-70.78z" fill="#009cfd"/><path d="m264.74 173.71h16.77l37.33-92.52h-19.56l-25.6 67.94h-.37l-24.58-67.94h-20.68z" fill="#009cfd"/><path d="m181.26 81.52 13.99 8.93-9.31 14.69-13.98-9.29z" fill="#b1defe" fill-rule="evenodd"/><path d="m193.15 57.52h16.6v16.6h-16.6z" fill="#75c1f0" transform="matrix(.5380354 -.84292224 .84292224 .5380354 37.59 200.22)"/><path d="m174.84 0 13.93 8.84-26.51 41.46-14.77-9.23z" fill="#b0ddfe" fill-rule="evenodd"/><path d="m161.56 49.91 15.34 9.62-9.57 14.27-15.13-9.25z" fill="#b1ddfe" fill-rule="evenodd"/><path d="m188.06 34.74h16.6v16.6h-16.6z" fill="#b0dcfe" transform="matrix(.5380354 -.84292224 .84292224 .5380354 54.44 185.4)"/><path d="m210.82 30h16.6v16.6h-16.6z" fill="#b0ddfe" transform="matrix(.5380354 -.84292224 .84292224 .5380354 68.95 202.4)"/><path d="m206.08 7.23h16.6v16.6h-16.6z" fill="#b1ddfe" transform="matrix(.5380354 -.84292224 .84292224 .5380354 85.96 187.89)"/><g fill-rule="evenodd"><path d="m179.57 22.77 14.66 8.87-17.69 27.88-14.77-9.23z" fill="#75c1f1"/><path d="m142.51 18.65-79.02 123.77 73.13 39.98 49.79-78.05-13.94-8.84 17.61-27.17-13.52-8.81-9.22 13.91-14.64-9.23 9.22-14.28-13.94-8.84 8.83-13.59z" fill="#75c1f0"/><path d="m0 33.27c41.88 71.46 86.08 151.51 93.62 160.21 10.28 12.71 28.56 12.87 37.94-.05 5.97-7.06 29.41-49.24 29.41-49.24l-47.84-78.77s-33.43-43.52-113.13-32.15z" fill="#028ce7"/></g></svg>