<?xml version="1.0" encoding="UTF-8"?><svg xmlns="http://www.w3.org/2000/svg" viewBox="0 0 2260.1816 596.9229"><g id="a" style="isolation:isolate;"><g id="b"><path d="M166,0V435s149.3848-49.0879,165-162c0-54.166,1-222,1-222L166,0Z" style="fill:#007ed9; fill-rule:evenodd;"/></g></g><g id="c" style="isolation:isolate;"><g id="d"><path d="M0,51s1,167.834,1,222c15.6152,112.9121,164.9999,162,164.9999,162V0L0,51Z" style="fill:#0094ff; fill-rule:evenodd;"/></g></g><g id="e" style="isolation:isolate;"><g id="f"><polygon points="166.0769 0 0 51 0 76 165.6979 25 332 76 332 51 166.0769 0" style="fill:#006ab7; fill-rule:evenodd;"/></g></g><g id="g" style="isolation:isolate;"><g id="h"><path d="M210,171H122c-22.0915,0-40.0001,17.9086-40.0001,40v82c0,17.2722,26.8789,41,84.0001,41s83.9999-25.2871,83.9999-41v-82c0-22.0914-17.9084-40-39.9999-40Zm-32,88.8387v22.1613h-23.9999v-22.7914c-6.0292-4.0364-10-10.9081-10-18.7086,0-12.4264,10.0736-22.5,22.4999-22.5s22.5001,10.0736,22.5001,22.5c0,8.2237-4.414,15.4138-11,19.3387Z" style="fill:#fff; fill-rule:evenodd;"/></g></g><g id="i" style="isolation:isolate;"><g id="j"><path d="M166.4999,91c-44.4677,0-63.5,49.2061-63.5,84,0,50.6985,127,50.6985,127,0,0-34.7939-19.0322-84-63.5-84Zm-.4999,105c-18.2254,0-35.9999-5.1178-35.9999-25s9.5936-51,35.9999-51,36,31.1178,36,51-17.7745,25-36,25Z" style="fill:#fff; fill-rule:evenodd;"/></g></g><g id="k"><g><path d="M558.895,309.4307c3.7876,7.2959,8.8198,13.2031,15.0962,17.7227,6.27,4.5264,13.6333,7.876,22.0981,10.0645,8.4575,2.1875,17.209,3.2812,26.2549,3.2812,6.126,0,12.6895-.5059,19.6909-1.5312,7.0015-1.0186,13.5649-2.9883,19.6914-5.9072,6.126-2.9131,11.2266-6.9258,15.3149-12.0332,4.082-5.1006,6.1265-11.5967,6.1265-19.4727,0-8.458-2.7007-15.3154-8.0952-20.5664-5.4014-5.251-12.4712-9.627-21.2227-13.1279-8.752-3.5-18.6724-6.5635-29.7559-9.1885-11.0898-2.626-22.3164-5.5381-33.6934-8.752-11.6714-2.9131-23.0483-6.4883-34.1318-10.7207-11.0898-4.2256-21.0039-9.6953-29.7554-16.4092-8.7515-6.7075-15.8281-15.0967-21.2227-25.1611-5.4014-10.0645-8.0952-22.2412-8.0952-36.5381,0-16.04,3.4253-29.9741,10.2832-41.7891,6.8511-11.8145,15.8213-21.6602,26.9111-29.5366,11.083-7.8765,23.6294-13.7085,37.6318-17.5034,14.0029-3.7876,28.0054-5.6885,42.0078-5.6885,16.3345,0,32.0122,1.8257,47.04,5.4697,15.0215,3.6514,28.3677,9.5586,40.0391,17.7222,11.6641,8.1704,20.9287,18.5972,27.7861,31.2871,6.8511,12.6899,10.2832,28.0806,10.2832,46.1646h-66.5122c-.5879-9.3325-2.5571-17.0654-5.9072-23.1914-3.3574-6.1265-7.8081-10.9395-13.3462-14.4404-5.5454-3.5005-11.8901-5.9756-19.0352-7.439-7.1514-1.4561-14.9526-2.188-23.4106-2.188-5.5449,0-11.0898,.5884-16.6279,1.7505-5.5449,1.1694-10.5771,3.2134-15.0967,6.1265-4.5259,2.9194-8.2456,6.5635-11.1582,10.9395-2.9194,4.3755-4.376,9.9204-4.376,16.6279,0,6.126,1.1626,11.0898,3.501,14.8779,2.3315,3.7944,6.9258,7.2949,13.7837,10.502,6.8511,3.2134,16.334,6.4199,28.4429,9.6265,12.1016,3.2139,27.9297,7.2954,47.4775,12.2524,5.832,1.1689,13.9272,3.2817,24.2856,6.3447,10.3516,3.0635,20.6348,7.9517,30.8496,14.6592,10.208,6.7139,19.0347,15.6846,26.4736,26.9111,7.439,11.2334,11.1582,25.5986,11.1582,43.1016,0,14.2969-2.7759,27.5684-8.314,39.8203-5.5449,12.252-13.7837,22.8291-24.7231,31.7246-10.9399,8.9023-24.5049,15.8281-40.6953,20.7852s-34.938,7.4385-56.229,7.4385c-17.2163,0-33.9126-2.1191-50.103-6.3447-16.1909-4.2256-30.4873-10.8643-42.8833-19.9102-12.4023-9.0381-22.248-20.5664-29.5366-34.5684-7.2954-14.0029-10.7959-30.6309-10.502-49.8848h66.5122c0,10.502,1.894,19.4043,5.689,26.6924Z" style="fill:#3e3e3e;"/><path d="M842.8794,309.4307c3.7876,7.2959,8.8198,13.2031,15.0962,17.7227,6.27,4.5264,13.6333,7.876,22.0981,10.0645,8.4575,2.1875,17.209,3.2812,26.2549,3.2812,6.126,0,12.6895-.5059,19.6909-1.5312,7.0015-1.0186,13.5649-2.9883,19.6914-5.9072,6.126-2.9131,11.2266-6.9258,15.3149-12.0332,4.082-5.1006,6.1265-11.5967,6.1265-19.4727,0-8.458-2.7007-15.3154-8.0952-20.5664-5.4014-5.251-12.4712-9.627-21.2227-13.1279-8.752-3.5-18.6724-6.5635-29.7559-9.1885-11.0898-2.626-22.3164-5.5381-33.6934-8.752-11.6714-2.9131-23.0483-6.4883-34.1318-10.7207-11.0898-4.2256-21.0039-9.6953-29.7554-16.4092-8.7515-6.7075-15.8281-15.0967-21.2227-25.1611-5.4014-10.0645-8.0952-22.2412-8.0952-36.5381,0-16.04,3.4253-29.9741,10.2832-41.7891,6.8511-11.8145,15.8213-21.6602,26.9111-29.5366,11.083-7.8765,23.6294-13.7085,37.6318-17.5034,14.0029-3.7876,28.0054-5.6885,42.0078-5.6885,16.3345,0,32.0122,1.8257,47.04,5.4697,15.0215,3.6514,28.3677,9.5586,40.0391,17.7222,11.6641,8.1704,20.9287,18.5972,27.7861,31.2871,6.8511,12.6899,10.2832,28.0806,10.2832,46.1646h-66.5122c-.5879-9.3325-2.5571-17.0654-5.9072-23.1914-3.3574-6.1265-7.8081-10.9395-13.3462-14.4404-5.5454-3.5005-11.8901-5.9756-19.0352-7.439-7.1514-1.4561-14.9526-2.188-23.4106-2.188-5.5449,0-11.0898,.5884-16.6279,1.7505-5.5449,1.1694-10.5771,3.2134-15.0967,6.1265-4.5259,2.9194-8.2456,6.5635-11.1582,10.9395-2.9194,4.3755-4.376,9.9204-4.376,16.6279,0,6.126,1.1626,11.0898,3.501,14.8779,2.3315,3.7944,6.9258,7.2949,13.7837,10.502,6.8511,3.2134,16.334,6.4199,28.4429,9.6265,12.1016,3.2139,27.9297,7.2954,47.4775,12.2524,5.832,1.1689,13.9272,3.2817,24.2856,6.3447,10.3516,3.0635,20.6348,7.9517,30.8496,14.6592,10.208,6.7139,19.0347,15.6846,26.4736,26.9111,7.439,11.2334,11.1582,25.5986,11.1582,43.1016,0,14.2969-2.7759,27.5684-8.314,39.8203-5.5449,12.252-13.7837,22.8291-24.7231,31.7246-10.9399,8.9023-24.5049,15.8281-40.6953,20.7852s-34.938,7.4385-56.229,7.4385c-17.2163,0-33.9126-2.1191-50.103-6.3447-16.1909-4.2256-30.4873-10.8643-42.8833-19.9102-12.4023-9.0381-22.248-20.5664-29.5366-34.5684-7.2954-14.0029-10.7959-30.6309-10.502-49.8848h66.5122c0,10.502,1.894,19.4043,5.689,26.6924Z" style="fill:#3e3e3e;"/><path d="M1143.0547,74.0122v254.6724h152.2783v57.7607h-220.9785V74.0122h68.7002Z" style="fill:#3e3e3e;"/><path d="M1304.5156,109.0186v-35.0063h249.8594v35.0063h-104.1445V386.4453h-41.5703V109.0186h-104.1445Z" style="fill:#3e3e3e;"/><path d="M1576.2519,160.2158v47.6963h.875c9.0391-18.3784,20.1289-31.9434,33.2559-40.6953,13.1279-8.7515,29.7559-12.833,49.8848-12.252v39.3823c-14.8779,0-27.5684,2.0444-38.0703,6.126-10.502,4.0889-18.9658,10.0645-25.3789,17.9409-6.4209,7.877-11.0898,17.4346-14.0029,28.6611-2.9199,11.2344-4.376,24.1426-4.376,38.7266v100.6436h-37.1943V160.2158h35.0068Z" style="fill:#3e3e3e;"/><path d="M1840.5478,386.4453v-35.8818h-.875c-7.876,14.0029-17.9404,24.2861-30.1934,30.8496-12.252,6.5635-26.6924,9.8457-43.3203,9.8457-14.8779,0-27.2803-1.9688-37.1943-5.9072-9.9209-3.9385-17.9404-9.5518-24.0674-16.8467-6.126-7.2891-10.4326-15.9717-12.9082-26.0361-2.4814-10.0645-3.7197-21.2227-3.7197-33.4756V160.2158h37.1943v153.1533c0,14.0029,4.082,25.0928,12.2529,33.2559,8.1631,8.1709,19.3965,12.2529,33.6934,12.2529,11.377,0,21.2227-1.751,29.5371-5.251,8.3135-3.501,15.2402-8.458,20.7852-14.8779,5.5381-6.4131,9.6953-13.9277,12.4707-22.5352,2.7695-8.6016,4.1572-18.0098,4.1572-28.2246v-127.7734h37.1943v226.2295h-35.0068Z" style="fill:#3e3e3e;"/><path d="M1960.0078,335.9043c3.5,5.6885,8.0947,10.2148,13.7832,13.5654,5.6885,3.3574,12.1025,5.7637,19.2539,7.2197,7.1445,1.4639,14.5088,2.1885,22.0977,2.1885,5.832,0,11.959-.4375,18.3789-1.3135,6.4131-.875,12.3203-2.4746,17.7217-4.8125,5.3945-2.332,9.8457-5.7578,13.3467-10.2832,3.5-4.5195,5.251-10.2832,5.251-17.2852,0-9.627-3.6514-16.915-10.9395-21.8789-7.2959-4.957-16.4102-8.9707-27.3496-12.0332-10.9395-3.0635-22.8291-5.832-35.6621-8.3145-12.8408-2.4746-24.7236-5.9756-35.6631-10.502-10.9395-4.5195-20.0605-10.8643-27.3486-19.0342-7.2959-8.1641-10.9395-19.541-10.9395-34.1318,0-11.377,2.5498-21.1475,7.6572-29.3179,5.1006-8.1636,11.6641-14.8022,19.6914-19.9097,8.0195-5.1006,17.0654-8.8955,27.1299-11.3774,10.0645-2.4751,20.0537-3.7192,29.9746-3.7192,12.833,0,24.6475,1.0938,35.4434,3.2817,10.7891,2.188,20.3477,5.9824,28.6621,11.377,8.3135,5.4014,14.9463,12.6899,19.9102,21.8794,4.957,9.189,7.876,20.6416,8.751,34.3496h-37.1943c-.5879-7.2881-2.4814-13.3457-5.6885-18.1592-3.2139-4.8135-7.2949-8.6763-12.252-11.5957-4.9639-2.9131-10.4336-5.0322-16.4092-6.3452-5.9834-1.3125-12.0342-1.9692-18.1602-1.9692-5.5449,0-11.1582,.4375-16.8467,1.313-5.6885,.875-10.8711,2.4067-15.5342,4.5947-4.6699,2.1875-8.4648,5.1074-11.377,8.7515-2.9199,3.6509-4.376,8.3892-4.376,14.2212,0,6.4204,2.2559,11.7466,6.7822,15.9722,4.5195,4.2324,10.2832,7.7324,17.2852,10.502,7.001,2.7754,14.877,5.1074,23.6289,7.001,8.752,1.9004,17.5029,3.8701,26.2549,5.9072,9.333,2.0449,18.4473,4.5264,27.3486,7.4395,8.8955,2.9189,16.7715,6.7822,23.6299,11.5957,6.8506,4.8135,12.3955,10.8711,16.6279,18.1592,4.2256,7.2959,6.3447,16.3408,6.3447,27.1299,0,13.7158-2.8438,25.0928-8.5322,34.1318-5.6895,9.0459-13.1279,16.3408-22.3174,21.8789-9.1885,5.5449-19.5469,9.4082-31.0684,11.5957-11.5273,2.1885-22.9727,3.2822-34.3496,3.2822-12.5469,0-24.5049-1.3125-35.8818-3.9385-11.377-2.625-21.4414-6.9258-30.1934-12.9082-8.751-5.9756-15.7529-13.8525-21.0039-23.6299-5.251-9.7705-8.1699-21.6602-8.751-35.6631h37.1943c.2871,8.1709,2.1875,15.0967,5.6885,20.7852Z" style="fill:#3e3e3e;"/><path d="M2247.0605,160.2158v32.8184h-45.0713v140.4639c0,4.376,.3623,7.876,1.0938,10.502,.7256,2.625,2.1133,4.6699,4.1572,6.126,2.0381,1.4629,4.8818,2.4072,8.5332,2.8447,3.6436,.4375,8.3818,.6562,14.2207,.6562h17.0664v32.8184h-28.4434c-9.627,0-17.8721-.6562-24.7227-1.9688-6.8584-1.3135-12.4033-3.7197-16.6289-7.2207-4.2314-3.5-7.3701-8.457-9.4072-14.8779-2.0449-6.4131-3.0635-14.877-3.0635-25.3789V193.0342h-38.5068v-32.8184h38.5068V92.3906h37.1943v67.8252h45.0713Z" style="fill:#3e3e3e;"/></g></g></svg>